  0.00000000E+00         5.67133045
  0.000000E+00              132
      1.00000000    3.7447568E-03
      0.99586630    3.6456978E-03
      0.99103236    3.5346965E-03
      0.98515719    3.4127461E-03
      0.97793561    3.2893396E-03
      0.96956730    3.1728854E-03
      0.96049184    3.0667349E-03
      0.95086843    2.9675839E-03
      0.94086891    2.8769234E-03
      0.93066525    2.7931216E-03
      0.92033732    2.7141748E-03
      0.90992951    2.6374178E-03
      0.89947420    2.5645227E-03
      0.88899118    2.4925824E-03
      0.87849414    2.4225358E-03
      0.86799264    2.3536177E-03
      0.85749310    2.2859836E-03
      0.84699965    2.2201836E-03
      0.83651459    2.1558281E-03
      0.82603937    2.0917149E-03
      0.81557417    2.0304986E-03
      0.80511844    1.9698387E-03
      0.79467136    1.9109155E-03
      0.78423190    1.8532980E-03
      0.77379888    1.7971272E-03
      0.76337111    1.7416965E-03
      0.75294781    1.6885014E-03
      0.74252844    1.6351336E-03
      0.73211247    1.5834558E-03
      0.72169977    1.5327393E-03
      0.71129072    1.4824831E-03
      0.70088613    1.4333028E-03
      0.69048709    1.3846864E-03
      0.68009478    1.3364074E-03
      0.66971081    1.2891293E-03
      0.65933728    1.2419753E-03
      0.64897615    1.1955982E-03
      0.63862967    1.1494819E-03
      0.62830013    1.1044554E-03
      0.61799014    1.0592667E-03
      0.60770202    1.0153931E-03
      0.59743798    9.7199029E-04
      0.58720022    9.2901738E-04
      0.57699054    8.8707986E-04
      0.56681108    8.4601436E-04
      0.55666316    8.0563786E-04
      0.54654789    7.6650624E-04
      0.53646618    7.2797813E-04
      0.52641892    6.9088076E-04
      0.51640660    6.5446744E-04
      0.50642884    6.1950710E-04
      0.49648508    5.8550952E-04
      0.48657501    5.5291480E-04
      0.47669753    5.2159029E-04
      0.46685141    4.9182866E-04
      0.45703557    4.6360993E-04
      0.44724774    4.3777560E-04
      0.43748584    4.1386983E-04
      0.42774796    3.9205971E-04
      0.41803119    3.7014944E-04
      0.40833402    3.4580161E-04
      0.39865369    3.2389781E-04
      0.38898680    3.1943616E-04
      0.37933141    3.1459727E-04
      0.36968514    3.0921528E-04
      0.36004519    3.0365930E-04
      0.35040936    2.9804005E-04
      0.34077564    2.9262947E-04
      0.33114246    2.8736296E-04
      0.32150778    2.8228847E-04
      0.31187120    2.7736349E-04
      0.30223268    2.7263945E-04
      0.29259184    2.6803109E-04
      0.28295007    2.6353545E-04
      0.27330884    2.5912933E-04
      0.26367134    2.5453823E-04
      0.25404131    2.5008852E-04
      0.24442320    2.4544631E-04
      0.23482317    2.4072766E-04
      0.22524898    2.3579170E-04
      0.21570835    2.3072022E-04
      0.20621042    2.2535722E-04
      0.19676664    2.1975879E-04
      0.18738739    2.1408762E-04
      0.17808524    2.0804236E-04
      0.16887254    2.0185550E-04
      0.15976176    1.9552834E-04
      0.15076545    1.8899950E-04
      0.14189635    1.8243656E-04
      0.13316621    1.7575700E-04
      0.12458622    1.6915133E-04
      0.11616722    1.6255086E-04
      0.10791916    1.5601235E-04
      0.09985214    1.4960793E-04
      0.09197614    1.4332838E-04
      0.08430219    1.3713377E-04
      0.07684280    1.3122235E-04
      0.06961326    1.2534442E-04
      0.06263272    1.1962660E-04
      0.05592546    1.1397375E-04
      0.04952196    1.0843410E-04
      0.04345854    1.0296860E-04
      0.03777574    9.7497788E-05
      0.03251444    9.1983507E-05
      0.02770909    8.6610155E-05
      0.02338122    8.1238744E-05
      0.01953472    7.6065269E-05
      0.01615573    7.0904069E-05
      0.01321637    6.6092973E-05
      0.01068038    6.1468178E-05
      0.00850800    5.7179106E-05
      0.00665986    5.3288870E-05
      0.00510002    4.9632265E-05
      0.00379737    4.6461406E-05
      0.00272544    4.3559248E-05
      0.00186155    4.1172676E-05
      0.00118518    3.9041246E-05
      0.00067846    3.7265094E-05
      0.00032602    3.6001657E-05
      0.00010625    3.4625689E-05
      0.00000534    3.2024378E-05
      0.00003869    2.8885610E-05
      0.00025345    2.7145321E-05
      0.00067931    2.7078337E-05
      0.00130745    2.7767122E-05
      0.00213877    2.8850913E-05
      0.00317321    3.0456355E-05
      0.00441565    3.2399723E-05
      0.00587651    3.4599336E-05
      0.00757252    3.7636113E-05
      0.00952791    3.9263748E-05
      0.01177476    4.5526343E-05
      0.01435413    4.5513163E-05
      0.01731857    5.0444007E-05
      0.02073055    5.5068220E-05
      0.02465549    5.9252379E-05
      0.02915329    6.4279724E-05
      0.03427191    6.9580921E-05
      0.04003581    7.5359363E-05
      0.04643387    8.1079408E-05
      0.05341932    8.7036293E-05
      0.06091848    9.3252558E-05
      0.06884690    9.9219760E-05
      0.07712276    1.0507384E-04
      0.08567487    1.1103898E-04
      0.09444528    1.1650980E-04
      0.10338880    1.2207612E-04
      0.11247075    1.2742440E-04
      0.12166487    1.3265152E-04
      0.13095097    1.3776234E-04
      0.14031427    1.4285848E-04
      0.14974339    1.4776914E-04
      0.15922970    1.5265499E-04
      0.16876635    1.5770190E-04
      0.17834830    1.6242771E-04
      0.18797174    1.6721908E-04
      0.19763310    1.7229747E-04
      0.20732996    1.7702454E-04
      0.21706007    1.8208944E-04
      0.22682124    1.8690375E-04
      0.23661168    1.9186721E-04
      0.24642964    1.9698571E-04
      0.25627345    2.0209301E-04
      0.26614153    2.0712330E-04
      0.27603206    2.1221177E-04
      0.28594324    2.1764259E-04
      0.29587361    2.2277150E-04
      0.30582148    2.2829219E-04
      0.31578502    2.3357598E-04
      0.32576272    2.3923749E-04
      0.33575329    2.4475664E-04
      0.34575501    2.5055418E-04
      0.35576674    2.5636461E-04
      0.36578742    2.6244399E-04
      0.37581572    2.6850647E-04
      0.38585109    2.7476938E-04
      0.39589283    2.8139408E-04
      0.40594065    2.8804454E-04
      0.41599435    2.9503441E-04
      0.42605412    3.0233327E-04
      0.43612042    3.0996394E-04
      0.44619387    3.1793374E-04
      0.45627540    3.2623034E-04
      0.46636632    3.3496923E-04
      0.47646824    3.4420181E-04
      0.48658285    3.5383677E-04
      0.49671245    3.6405152E-04
      0.50685948    3.7449424E-04
      0.51702631    3.8502575E-04
      0.52721626    3.9522391E-04
      0.53743249    4.0456024E-04
      0.54767859    4.1250588E-04
      0.55795830    4.1927351E-04
      0.56827551    4.2525545E-04
      0.57863426    4.3090089E-04
      0.58903801    4.3688595E-04
      0.59948891    4.4401558E-04
      0.60998660    4.5307635E-04
      0.62052101    5.9433089E-04
      0.63106418    6.6666474E-04
      0.64157540    7.0173072E-04
      0.65203005    7.3282851E-04
      0.66242158    7.6684129E-04
      0.67274666    8.0459955E-04
      0.68300456    8.4452983E-04
      0.69319630    8.8726165E-04
      0.70332265    9.2987070E-04
      0.71338522    9.7399950E-04
      0.72338605    1.0179844E-03
      0.73332715    1.0615217E-03
      0.74321103    1.1053134E-03
      0.75304013    1.1470919E-03
      0.76281714    1.1881386E-03
      0.77254516    1.2274267E-03
      0.78222710    1.2653430E-03
      0.79186642    1.3000182E-03
      0.80146617    1.3323110E-03
      0.81102997    1.3620048E-03
      0.82056159    1.3883497E-03
      0.83006430    1.4108637E-03
      0.83954197    1.4302047E-03
      0.84899843    1.4450193E-03
      0.85843712    1.4565078E-03
      0.86786187    1.4614267E-03
      0.87727600    1.4654228E-03
      0.88668275    1.4616629E-03
      0.89608449    1.4550572E-03
      0.90548295    1.4426972E-03
      0.91487789    1.4268740E-03
      0.92426455    1.4044598E-03
      0.93363035    1.3785213E-03
      0.94295454    1.3470902E-03
      0.95217913    1.3093043E-03
      0.96117020    1.2664808E-03
      0.96978861    1.2186493E-03
      0.97787750    1.1644014E-03
      0.98500276    1.0984800E-03
      0.99090016    1.0169445E-03
      0.99579585    9.2222367E-04
      1.00000000    7.6001202E-04
